<?xml version="1.0" encoding="utf-8"?>
<!-- Generator: Adobe Illustrator 22.0.1, SVG Export Plug-In . SVG Version: 6.00 Build 0)  -->
<svg version="1.1" id="Layer_1" xmlns="http://www.w3.org/2000/svg" xmlns:xlink="http://www.w3.org/1999/xlink" x="0px" y="0px"
	 viewBox="0 0 512 512" style="enable-background:new 0 0 512 512;" xml:space="preserve">
<style type="text/css">
	.st0{display:none;}
	.st1{display:inline;fill:#23A6D5;stroke:#231F20;stroke-linecap:round;stroke-miterlimit:10;}
	.st2{fill:#E73C7E;stroke:#231F20;stroke-linecap:round;stroke-miterlimit:10;}
	.st3{fill:#39BBCF;}
	.st4{fill:#E73C7E;}
</style>
<g id="Layer_3" class="st0">
	<path class="st1" d="M306.7,253.1c0,28.6-18.2,58.8-46.8,58.8S203,281.8,203,253.1s23.2-51.8,51.8-51.8S306.7,224.5,306.7,253.1z"
		/>
</g>
<g id="Layer_2_1_">
	<circle class="st2" cx="64" cy="295.9" r="21.1"/>
	<circle class="st2" cx="312.2" cy="64" r="21.1"/>
	<circle class="st2" cx="384" cy="416" r="21.1"/>
</g>
<g id="Outline">
	<path class="st3" d="M468.4,116.5c-21-27.9-67.7-35.7-128.9-21.5c-1.3-3.1-2.7-6.2-4.1-9.2c12-13,11.2-33.2-1.7-45.2
		c-9.2-8.5-22.4-10.9-34-6.1C286.1,22.2,271.4,16,256,16c-17.6,0-34.4,8.1-49.8,24.2C193.3,53.6,182,72,172.5,95
		c-61.2-14.1-107.9-6.4-128.9,21.5C19.7,148.2,33.4,200.1,79.9,256c-2.5,3.1-5,6.1-7.4,9.2c-17-4.7-34.6,5.2-39.4,22.2
		c-3,10.9-0.1,22.6,7.7,30.7c-12.8,31.3-11.9,58,2.7,77.4c14.1,18.8,39.9,28.4,73.8,28.4c16.5,0,35-2.3,55-6.9
		c9.5,22.9,20.9,41.3,33.8,54.8c15.4,16.1,32.1,24.2,49.8,24.2s34.4-8.1,49.8-24.2c12.9-13.4,24.2-31.9,33.8-54.8
		c4.3,1,8.5,1.9,12.7,2.7c2.1,17.6,18,30.1,35.5,28.1c13.6-1.6,24.7-11.7,27.6-25.1c23.9-3.2,42.2-12.5,53.1-27.1
		c23.8-31.8,10.2-83.6-36.4-139.5C478.6,200.1,492.3,148.2,468.4,116.5z M455.6,126.1c18.5,24.7,5.4,69.3-34.2,117.7
		c-17.6-19.2-36.9-36.9-57.5-52.9c-3.8-29.1-10.1-56.8-18.6-80.8C398.2,98.3,439.1,104.1,455.6,126.1L455.6,126.1z M329.7,398.1
		c-18.8-5.2-37.2-11.8-55.1-19.7c17.3-8.9,34.1-18.8,50.4-29.4c7-4.6,13.9-9.3,20.7-14.2C342.3,356.3,336.9,377.5,329.7,398.1
		L329.7,398.1z M182.3,398.1c-7.2-20.6-12.5-41.8-16-63.3c6.8,4.9,13.6,9.6,20.7,14.2c16.3,10.7,33.1,20.5,50.4,29.4
		C219.5,386.2,201.1,392.8,182.3,398.1L182.3,398.1z M182.3,113.9c18.8,5.2,37.2,11.8,55.1,19.7c-17.3,8.9-34.1,18.8-50.4,29.4
		c-7,4.6-13.9,9.3-20.7,14.2C169.7,155.7,175.1,134.5,182.3,113.9L182.3,113.9z M195.7,335.6c-11.2-7.3-22.1-15.1-32.5-23
		c-4.2-37.6-4.2-75.6,0-113.2c10.4-7.9,21.3-15.7,32.5-23c19.4-12.7,39.5-24.1,60.3-34.2c20.8,10.1,40.9,21.5,60.3,34.2
		c11.2,7.3,22.1,15.1,32.5,23c2.1,18.8,3.2,37.7,3.2,56.6s-1.1,37.8-3.2,56.6c-10.4,7.9-21.3,15.7-32.5,23
		c-19.4,12.7-39.5,24.1-60.3,34.2C235.2,359.7,215.1,348.2,195.7,335.6L195.7,335.6z M145.7,298.7c-15.9-13.1-30.8-27.4-44.6-42.7
		c13.8-15.3,28.8-29.5,44.6-42.7c-1.2,14-1.7,28.3-1.7,42.7S144.6,284.6,145.7,298.7L145.7,298.7z M329.7,113.9
		c7.2,20.6,12.5,41.8,16,63.3c-6.8-4.8-13.6-9.6-20.7-14.2c-16.3-10.7-33.1-20.5-50.4-29.4C292.5,125.8,310.9,119.2,329.7,113.9z
		 M366.3,213.3c15.9,13.1,30.8,27.4,44.6,42.7c-13.8,15.3-28.8,29.5-44.6,42.7c1.1-14,1.7-28.3,1.7-42.7S367.4,227.4,366.3,213.3
		L366.3,213.3z M328,64c0,8.8-7.2,16-16,16s-16-7.2-16-16s7.2-16,16-16S328,55.2,328,64z M256,32c10.5,0,20.8,4.2,30.8,12.3
		c-10.9,13.9-8.4,34,5.5,44.9c8.4,6.5,19.4,8.5,29.6,5.2c0.7,1.5,1.3,3,2,4.5c-23.3,6.6-46,15.2-67.9,25.5
		c-21.9-10.3-44.6-18.9-67.9-25.5C206.4,56.3,230.8,32,256,32z M56.4,126.1c16.5-22,57.4-27.8,110.3-16c-8.4,24-14.8,51.7-18.6,80.8
		c-20.6,16-39.8,33.7-57.5,52.9C51,195.4,37.8,150.8,56.4,126.1z M64,280c8.8,0,16,7.2,16,16s-7.2,16-16,16s-16-7.2-16-16
		S55.2,280,64,280z M56.4,385.9c-13-17.3-8.8-40.6-1.6-59.3c16.9,5.1,34.8-4.4,39.9-21.4c3.4-11.3,0.3-23.6-8.1-32
		c1.3-1.7,2.7-3.4,4.1-5.1c17.6,19.2,36.9,36.9,57.5,52.9c3.8,29.1,10.1,56.8,18.6,80.8C113.8,413.7,72.9,407.9,56.4,385.9z
		 M256,480c-25.2,0-49.6-24.3-67.9-67c23.3-6.6,46-15.2,67.9-25.5c21.9,10.3,44.6,18.9,67.9,25.5C305.6,455.7,281.2,480,256,480z
		 M384,432c-8.8,0-16-7.2-16-16s7.2-16,16-16s16,7.2,16,16S392.8,432,384,432z M455.6,385.9c-8.1,10.8-22.2,17.9-41,20.7
		c-5.2-16.9-23.1-26.4-40-21.2c-9.1,2.8-16.6,9.6-20.2,18.4c-3-0.6-6-1.2-9.1-1.9c8.5-24,14.8-51.7,18.6-80.8
		c20.6-16,39.8-33.7,57.5-52.9C461,316.6,474.2,361.2,455.6,385.9L455.6,385.9z"/>
	<path class="st4" d="M256,192c-35.3,0-64,28.7-64,64s28.7,64,64,64s64-28.7,64-64S291.3,192,256,192z M256,304
		c-26.5,0-48-21.5-48-48s21.5-48,48-48s48,21.5,48,48S282.5,304,256,304z"/>
</g>
</svg>
