<?xml version="1.0" encoding="utf-8"?>
<!-- Generator: Adobe Illustrator 22.0.1, SVG Export Plug-In . SVG Version: 6.00 Build 0)  -->
<svg version="1.1" id="Capa_1" xmlns="http://www.w3.org/2000/svg" xmlns:xlink="http://www.w3.org/1999/xlink" x="0px" y="0px"
	 viewBox="0 0 446.3 446.3" style="enable-background:new 0 0 446.3 446.3;" xml:space="preserve">
<style type="text/css">
	.st0{fill:#FFFFFF;}
</style>
<g>
	<g id="search">
		<path class="st0" d="M292.6,264.7h-14.8l-5.5-5.5c18.5-20.3,29.6-48,29.6-77.5c-0.1-66.5-53.8-120-120.4-120
			s-120.4,53.5-120.4,120s53.6,120,120.4,120c29.6,0,57.4-11.1,77.8-29.5l5.5,5.5v14.8l92.6,92.3l27.8-27.7L292.6,264.7z
			 M181.5,264.7c-46.3,0-83.3-36.9-83.3-83s37-83.1,83.3-83.1s83.3,36.9,83.3,83.1S227.8,264.7,181.5,264.7z"/>
	</g>
</g>
</svg>
